<mxfile host="65bd71144e" scale="4" border="0">
    <diagram id="1w3zh8Y8zIVVGSpIhVbL" name="example">
        <mxGraphModel dx="508" dy="604" grid="1" gridSize="10" guides="1" tooltips="1" connect="1" arrows="1" fold="1" page="1" pageScale="1" pageWidth="1654" pageHeight="1169" background="#ffffff" math="0" shadow="0">
            <root>
                <mxCell id="0"/>
                <mxCell id="1" parent="0"/>
                <mxCell id="13" value="&lt;font style=&quot;font-size: 18px;&quot;&gt;Compute Engine (processor)&lt;/font&gt;" style="swimlane;whiteSpace=wrap;html=1;startSize=30;" parent="1" vertex="1">
                    <mxGeometry x="50" y="310" width="550" height="400" as="geometry"/>
                </mxCell>
                <mxCell id="14" value="&lt;font style=&quot;font-size: 14px;&quot;&gt;ALU&lt;/font&gt;" style="shape=trapezoid;perimeter=trapezoidPerimeter;whiteSpace=wrap;html=1;fixedSize=1;" parent="13" vertex="1">
                    <mxGeometry x="30" y="70" width="120" height="60" as="geometry"/>
                </mxCell>
                <mxCell id="28" style="edgeStyle=none;html=1;entryX=0.5;entryY=0;entryDx=0;entryDy=0;" parent="13" source="7" target="26" edge="1">
                    <mxGeometry relative="1" as="geometry">
                        <Array as="points">
                            <mxPoint x="155" y="270"/>
                        </Array>
                    </mxGeometry>
                </mxCell>
                <mxCell id="7" value="&lt;font style=&quot;font-size: 14px;&quot;&gt;&lt;font style=&quot;&quot;&gt;Select&amp;nbsp;&lt;/font&gt;&lt;span style=&quot;background-color: transparent;&quot;&gt;Logic&lt;/span&gt;&lt;/font&gt;&lt;div&gt;&lt;font size=&quot;3&quot;&gt;(task picker)&lt;/font&gt;&lt;/div&gt;" style="shape=process;whiteSpace=wrap;html=1;backgroundOutline=1;" parent="13" vertex="1">
                    <mxGeometry x="90" y="150" width="130" height="90" as="geometry"/>
                </mxCell>
                <mxCell id="26" value="&lt;font style=&quot;font-size: 18px;&quot;&gt;PC&lt;/font&gt;" style="rhombus;whiteSpace=wrap;html=1;" parent="13" vertex="1">
                    <mxGeometry x="115" y="310" width="80" height="80" as="geometry"/>
                </mxCell>
                <mxCell id="36" value="Decode" style="shape=process;whiteSpace=wrap;html=1;backgroundOutline=1;" parent="13" vertex="1">
                    <mxGeometry x="20" y="260" width="90" height="60" as="geometry"/>
                </mxCell>
                <mxCell id="9" style="edgeStyle=none;html=1;exitX=0;exitY=0.5;exitDx=0;exitDy=0;entryX=1;entryY=0.5;entryDx=0;entryDy=0;" parent="13" source="3" target="7" edge="1">
                    <mxGeometry relative="1" as="geometry"/>
                </mxCell>
                <mxCell id="11" style="edgeStyle=none;html=1;exitX=0;exitY=0.5;exitDx=0;exitDy=0;entryX=1;entryY=0.5;entryDx=0;entryDy=0;" parent="13" source="6" target="7" edge="1">
                    <mxGeometry relative="1" as="geometry">
                        <mxPoint x="160" y="210" as="targetPoint"/>
                    </mxGeometry>
                </mxCell>
                <mxCell id="12" style="edgeStyle=none;html=1;exitX=0;exitY=0.5;exitDx=0;exitDy=0;entryX=1;entryY=0.5;entryDx=0;entryDy=0;" parent="13" source="5" target="7" edge="1">
                    <mxGeometry relative="1" as="geometry">
                        <mxPoint x="160" y="260" as="targetPoint"/>
                    </mxGeometry>
                </mxCell>
                <mxCell id="10" style="edgeStyle=none;html=1;exitX=0;exitY=0.5;exitDx=0;exitDy=0;entryX=1;entryY=0.5;entryDx=0;entryDy=0;" parent="13" source="4" target="7" edge="1">
                    <mxGeometry relative="1" as="geometry">
                        <mxPoint x="150" y="200" as="targetPoint"/>
                    </mxGeometry>
                </mxCell>
                <mxCell id="38" style="edgeStyle=none;html=1;exitX=0.25;exitY=0;exitDx=0;exitDy=0;entryX=0.5;entryY=0.833;entryDx=0;entryDy=0;entryPerimeter=0;" parent="13" source="36" target="14" edge="1">
                    <mxGeometry relative="1" as="geometry">
                        <Array as="points">
                            <mxPoint x="43" y="150"/>
                        </Array>
                    </mxGeometry>
                </mxCell>
                <mxCell id="39" value="" style="group" parent="13" vertex="1" connectable="0">
                    <mxGeometry x="250" y="60" width="250" height="310" as="geometry"/>
                </mxCell>
                <mxCell id="3" value="" style="rounded=1;whiteSpace=wrap;html=1;" parent="39" vertex="1">
                    <mxGeometry y="30" width="250.00000000000003" height="40" as="geometry"/>
                </mxCell>
                <mxCell id="2" value="table of tasks (specialized register)" style="swimlane;whiteSpace=wrap;html=1;" parent="39" vertex="1">
                    <mxGeometry width="250.00000000000003" height="310" as="geometry"/>
                </mxCell>
                <mxCell id="6" value="" style="rounded=1;whiteSpace=wrap;html=1;" parent="2" vertex="1">
                    <mxGeometry y="130" width="250.00000000000003" height="40" as="geometry"/>
                </mxCell>
                <mxCell id="5" value="" style="rounded=1;whiteSpace=wrap;html=1;" parent="2" vertex="1">
                    <mxGeometry y="270" width="250.00000000000003" height="40" as="geometry"/>
                </mxCell>
                <mxCell id="4" value="" style="rounded=1;whiteSpace=wrap;html=1;" parent="2" vertex="1">
                    <mxGeometry y="70" width="250.00000000000003" height="40" as="geometry"/>
                </mxCell>
                <mxCell id="43" value="" style="rounded=1;whiteSpace=wrap;html=1;" parent="2" vertex="1">
                    <mxGeometry y="170" width="250.00000000000003" height="40" as="geometry"/>
                </mxCell>
                <mxCell id="lTQZ8dkTj6trxgzpwAS2-74" value="&lt;font style=&quot;color: rgb(204, 102, 0); font-size: 27px;&quot;&gt;Local Task&lt;/font&gt;" style="rounded=1;whiteSpace=wrap;html=1;opacity=80;strokeWidth=6;glass=0;fillColor=#ffe6cc;strokeColor=#d79b00;" parent="2" vertex="1">
                    <mxGeometry x="20" y="170" width="220" height="140" as="geometry"/>
                </mxCell>
                <mxCell id="24" value="&lt;font style=&quot;font-size: 14px;&quot;&gt;Mem Addr (code)&lt;/font&gt;" style="shape=hexagon;perimeter=hexagonPerimeter2;whiteSpace=wrap;html=1;fixedSize=1;" parent="39" vertex="1">
                    <mxGeometry x="30" y="30" width="140" height="40" as="geometry"/>
                </mxCell>
                <mxCell id="25" value="&lt;font style=&quot;font-size: 14px;&quot;&gt;flag bit&lt;/font&gt;" style="shape=hexagon;perimeter=hexagonPerimeter2;whiteSpace=wrap;html=1;fixedSize=1;" parent="39" vertex="1">
                    <mxGeometry x="170" y="30" width="68.64" height="40" as="geometry"/>
                </mxCell>
                <mxCell id="lTQZ8dkTj6trxgzpwAS2-73" value="&lt;font style=&quot;color: rgb(0, 0, 255); font-size: 28px;&quot;&gt;Data Task&lt;/font&gt;" style="rounded=1;whiteSpace=wrap;html=1;opacity=40;strokeWidth=6;glass=0;fillColor=#CCFFFF;strokeColor=#00CCCC;fillStyle=auto;" parent="39" vertex="1">
                    <mxGeometry x="20" y="30" width="220" height="140" as="geometry"/>
                </mxCell>
                <mxCell id="45" style="edgeStyle=none;html=1;exitX=0;exitY=0.5;exitDx=0;exitDy=0;entryX=1;entryY=0.5;entryDx=0;entryDy=0;" parent="13" source="43" target="7" edge="1">
                    <mxGeometry relative="1" as="geometry"/>
                </mxCell>
                <mxCell id="16" value="&lt;font style=&quot;font-size: 18px;&quot;&gt;Router&lt;/font&gt;" style="swimlane;whiteSpace=wrap;html=1;startSize=30;" parent="1" vertex="1">
                    <mxGeometry x="680" y="310" width="460" height="400" as="geometry"/>
                </mxCell>
                <mxCell id="40" value="&lt;font style=&quot;font-size: 18px;&quot;&gt;Input Queue (Hardware Buffer)&lt;/font&gt;" style="swimlane;whiteSpace=wrap;html=1;startSize=40;" parent="16" vertex="1">
                    <mxGeometry x="40" y="40" width="290" height="210" as="geometry"/>
                </mxCell>
                <mxCell id="41" value="" style="shape=cylinder3;whiteSpace=wrap;html=1;boundedLbl=1;backgroundOutline=1;size=15;rotation=-90;" parent="40" vertex="1">
                    <mxGeometry x="120" y="-60" width="40" height="260" as="geometry"/>
                </mxCell>
                <mxCell id="42" value="" style="shape=cylinder3;whiteSpace=wrap;html=1;boundedLbl=1;backgroundOutline=1;size=15;rotation=-90;" parent="40" vertex="1">
                    <mxGeometry x="120" y="40" width="40" height="260" as="geometry"/>
                </mxCell>
                <mxCell id="48" value="&lt;font style=&quot;font-size: 14px;&quot;&gt;route associated with task ID&lt;/font&gt;" style="text;html=1;align=center;verticalAlign=middle;whiteSpace=wrap;rounded=0;" parent="40" vertex="1">
                    <mxGeometry x="50" y="55" width="200" height="30" as="geometry"/>
                </mxCell>
                <mxCell id="49" value="&lt;font style=&quot;font-size: 14px;&quot;&gt;route associated with task ID&lt;/font&gt;" style="text;html=1;align=center;verticalAlign=middle;whiteSpace=wrap;rounded=0;" parent="40" vertex="1">
                    <mxGeometry x="45" y="155" width="200" height="30" as="geometry"/>
                </mxCell>
                <mxCell id="50" value="" style="shape=cylinder3;whiteSpace=wrap;html=1;boundedLbl=1;backgroundOutline=1;size=15;rotation=-90;" parent="40" vertex="1">
                    <mxGeometry x="120" y="-20" width="40" height="260" as="geometry"/>
                </mxCell>
                <mxCell id="53" value="&lt;font style=&quot;font-size: 18px;&quot;&gt;Mechanism to send&lt;/font&gt;" style="rounded=0;whiteSpace=wrap;html=1;" parent="16" vertex="1">
                    <mxGeometry x="40" y="270" width="290" height="60" as="geometry"/>
                </mxCell>
                <mxCell id="66" value="" style="group" parent="16" vertex="1" connectable="0">
                    <mxGeometry x="370" y="40" width="130" height="350" as="geometry"/>
                </mxCell>
                <mxCell id="58" style="edgeStyle=none;html=1;exitX=0;exitY=0.75;exitDx=0;exitDy=0;exitPerimeter=0;" parent="66" source="54" edge="1">
                    <mxGeometry relative="1" as="geometry">
                        <mxPoint x="130" y="20" as="targetPoint"/>
                    </mxGeometry>
                </mxCell>
                <mxCell id="54" value="&lt;font style=&quot;font-size: 14px;&quot;&gt;North Port&lt;/font&gt;" style="shape=or;whiteSpace=wrap;html=1;direction=west;" parent="66" vertex="1">
                    <mxGeometry width="90" height="80" as="geometry"/>
                </mxCell>
                <mxCell id="60" style="edgeStyle=none;html=1;exitX=0;exitY=0.75;exitDx=0;exitDy=0;exitPerimeter=0;" parent="66" source="55" edge="1">
                    <mxGeometry relative="1" as="geometry">
                        <mxPoint x="130" y="110.39999999999998" as="targetPoint"/>
                    </mxGeometry>
                </mxCell>
                <mxCell id="55" value="&lt;font style=&quot;font-size: 14px;&quot;&gt;South Port&lt;/font&gt;" style="shape=or;whiteSpace=wrap;html=1;direction=west;" parent="66" vertex="1">
                    <mxGeometry y="90" width="90" height="80" as="geometry"/>
                </mxCell>
                <mxCell id="62" style="edgeStyle=none;html=1;exitX=0;exitY=0.75;exitDx=0;exitDy=0;exitPerimeter=0;" parent="66" source="56" edge="1">
                    <mxGeometry relative="1" as="geometry">
                        <mxPoint x="130" y="200" as="targetPoint"/>
                    </mxGeometry>
                </mxCell>
                <mxCell id="56" value="&lt;font style=&quot;font-size: 14px;&quot;&gt;East Port&lt;/font&gt;" style="shape=or;whiteSpace=wrap;html=1;direction=west;" parent="66" vertex="1">
                    <mxGeometry y="180" width="90" height="80" as="geometry"/>
                </mxCell>
                <mxCell id="64" style="edgeStyle=none;html=1;exitX=0;exitY=0.75;exitDx=0;exitDy=0;exitPerimeter=0;" parent="66" source="57" edge="1">
                    <mxGeometry relative="1" as="geometry">
                        <mxPoint x="130" y="290.090909090909" as="targetPoint"/>
                    </mxGeometry>
                </mxCell>
                <mxCell id="57" value="&lt;font style=&quot;font-size: 14px;&quot;&gt;West Port&lt;/font&gt;" style="shape=or;whiteSpace=wrap;html=1;direction=west;" parent="66" vertex="1">
                    <mxGeometry y="270" width="90" height="80" as="geometry"/>
                </mxCell>
                <mxCell id="68" style="edgeStyle=none;html=1;entryX=1;entryY=0.5;entryDx=0;entryDy=0;" parent="16" source="54" target="40" edge="1">
                    <mxGeometry relative="1" as="geometry"/>
                </mxCell>
                <mxCell id="69" style="edgeStyle=none;html=1;entryX=1;entryY=0.5;entryDx=0;entryDy=0;" parent="16" source="55" target="40" edge="1">
                    <mxGeometry relative="1" as="geometry">
                        <mxPoint x="339.9999999999998" y="160" as="targetPoint"/>
                    </mxGeometry>
                </mxCell>
                <mxCell id="70" style="edgeStyle=none;html=1;entryX=1;entryY=0.5;entryDx=0;entryDy=0;" parent="16" source="56" target="40" edge="1">
                    <mxGeometry relative="1" as="geometry"/>
                </mxCell>
                <mxCell id="71" style="edgeStyle=none;html=1;entryX=1;entryY=0.5;entryDx=0;entryDy=0;" parent="16" source="57" target="40" edge="1">
                    <mxGeometry relative="1" as="geometry"/>
                </mxCell>
                <mxCell id="20" style="edgeStyle=none;html=1;entryX=1;entryY=0.5;entryDx=0;entryDy=0;" parent="1" source="17" target="3" edge="1">
                    <mxGeometry relative="1" as="geometry"/>
                </mxCell>
                <mxCell id="21" style="edgeStyle=none;html=1;entryX=1;entryY=0.5;entryDx=0;entryDy=0;" parent="1" source="17" target="4" edge="1">
                    <mxGeometry relative="1" as="geometry"/>
                </mxCell>
                <mxCell id="22" style="edgeStyle=none;html=1;entryX=1;entryY=0.5;entryDx=0;entryDy=0;" parent="1" source="17" target="6" edge="1">
                    <mxGeometry relative="1" as="geometry"/>
                </mxCell>
                <mxCell id="23" style="edgeStyle=none;html=1;entryX=1;entryY=0.5;entryDx=0;entryDy=0;" parent="1" source="17" target="5" edge="1">
                    <mxGeometry relative="1" as="geometry"/>
                </mxCell>
                <mxCell id="44" style="edgeStyle=none;html=1;entryX=1;entryY=0.5;entryDx=0;entryDy=0;" parent="1" source="17" target="43" edge="1">
                    <mxGeometry relative="1" as="geometry"/>
                </mxCell>
                <mxCell id="17" value="" style="shape=waypoint;sketch=0;fillStyle=solid;size=6;pointerEvents=1;points=[];fillColor=none;resizable=0;rotatable=0;perimeter=centerPerimeter;snapToPoint=1;" parent="1" vertex="1">
                    <mxGeometry x="580" y="530" width="20" height="20" as="geometry"/>
                </mxCell>
                <mxCell id="19" style="edgeStyle=none;html=1;exitX=0.5;exitY=0;exitDx=0;exitDy=0;entryX=0.617;entryY=0.988;entryDx=0;entryDy=0;entryPerimeter=0;" parent="1" source="14" target="17" edge="1">
                    <mxGeometry relative="1" as="geometry">
                        <Array as="points">
                            <mxPoint x="140" y="360"/>
                            <mxPoint x="590" y="360"/>
                        </Array>
                    </mxGeometry>
                </mxCell>
                <mxCell id="29" value="&lt;span style=&quot;font-size: 18px;&quot;&gt;local PE memory&lt;/span&gt;" style="swimlane;whiteSpace=wrap;html=1;startSize=40;" parent="1" vertex="1">
                    <mxGeometry x="50" y="720" width="490" height="120" as="geometry"/>
                </mxCell>
                <mxCell id="30" value="&lt;font size=&quot;3&quot;&gt;Code&lt;/font&gt;" style="shape=cube;whiteSpace=wrap;html=1;boundedLbl=1;backgroundOutline=1;darkOpacity=0.05;darkOpacity2=0.1;" parent="29" vertex="1">
                    <mxGeometry x="50" y="40" width="180" height="80" as="geometry"/>
                </mxCell>
                <mxCell id="31" value="&lt;font style=&quot;font-size: 18px;&quot;&gt;Data&lt;/font&gt;" style="shape=cube;whiteSpace=wrap;html=1;boundedLbl=1;backgroundOutline=1;darkOpacity=0.05;darkOpacity2=0.1;" parent="29" vertex="1">
                    <mxGeometry x="260" y="40" width="180" height="80" as="geometry"/>
                </mxCell>
                <mxCell id="72" value="&lt;font style=&quot;font-size: 18px;&quot;&gt;task&lt;/font&gt;&lt;div&gt;&lt;font size=&quot;3&quot;&gt;code&lt;/font&gt;&lt;/div&gt;" style="ellipse;shape=cloud;whiteSpace=wrap;html=1;strokeColor=#009900;strokeWidth=4;opacity=70;fillColor=#66FF66;" parent="29" vertex="1">
                    <mxGeometry x="250" y="40" width="90" height="80" as="geometry"/>
                </mxCell>
                <mxCell id="32" style="edgeStyle=none;html=1;entryX=0.583;entryY=0.125;entryDx=0;entryDy=0;entryPerimeter=0;" parent="1" source="26" target="30" edge="1">
                    <mxGeometry relative="1" as="geometry"/>
                </mxCell>
                <mxCell id="37" style="edgeStyle=none;html=1;entryX=0.25;entryY=1;entryDx=0;entryDy=0;" parent="1" source="30" target="36" edge="1">
                    <mxGeometry relative="1" as="geometry">
                        <Array as="points">
                            <mxPoint x="93" y="690"/>
                        </Array>
                    </mxGeometry>
                </mxCell>
                <mxCell id="46" style="edgeStyle=none;html=1;" parent="1" source="41" target="3" edge="1">
                    <mxGeometry relative="1" as="geometry">
                        <mxPoint x="630" y="380" as="targetPoint"/>
                    </mxGeometry>
                </mxCell>
                <mxCell id="47" style="edgeStyle=none;html=1;entryX=1;entryY=0.5;entryDx=0;entryDy=0;" parent="1" source="42" target="6" edge="1">
                    <mxGeometry relative="1" as="geometry"/>
                </mxCell>
                <mxCell id="51" style="edgeStyle=none;html=1;entryX=1;entryY=0.5;entryDx=0;entryDy=0;" parent="1" source="50" target="4" edge="1">
                    <mxGeometry relative="1" as="geometry"/>
                </mxCell>
                <mxCell id="59" value="" style="endArrow=classic;html=1;entryX=0;entryY=0.25;entryDx=0;entryDy=0;entryPerimeter=0;" parent="1" target="54" edge="1">
                    <mxGeometry width="50" height="50" relative="1" as="geometry">
                        <mxPoint x="1180" y="410" as="sourcePoint"/>
                        <mxPoint x="1200" y="430" as="targetPoint"/>
                    </mxGeometry>
                </mxCell>
                <mxCell id="61" value="" style="endArrow=classic;html=1;entryX=0;entryY=0.25;entryDx=0;entryDy=0;entryPerimeter=0;" parent="1" target="55" edge="1">
                    <mxGeometry width="50" height="50" relative="1" as="geometry">
                        <mxPoint x="1180" y="500" as="sourcePoint"/>
                        <mxPoint x="1200" y="500" as="targetPoint"/>
                    </mxGeometry>
                </mxCell>
                <mxCell id="63" value="" style="endArrow=classic;html=1;entryX=0;entryY=0.25;entryDx=0;entryDy=0;entryPerimeter=0;" parent="1" target="56" edge="1">
                    <mxGeometry width="50" height="50" relative="1" as="geometry">
                        <mxPoint x="1180" y="590" as="sourcePoint"/>
                        <mxPoint x="1180" y="520" as="targetPoint"/>
                    </mxGeometry>
                </mxCell>
                <mxCell id="65" value="" style="endArrow=classic;html=1;entryX=0;entryY=0.25;entryDx=0;entryDy=0;entryPerimeter=0;" parent="1" target="57" edge="1">
                    <mxGeometry width="50" height="50" relative="1" as="geometry">
                        <mxPoint x="1180" y="680" as="sourcePoint"/>
                        <mxPoint x="1180" y="520" as="targetPoint"/>
                    </mxGeometry>
                </mxCell>
                <mxCell id="lTQZ8dkTj6trxgzpwAS2-71" value="&lt;font style=&quot;font-size: 24px;&quot;&gt;wavelet&lt;/font&gt;" style="shape=tape;whiteSpace=wrap;html=1;size=0.2;strokeWidth=5;shadow=1;strokeColor=#FF66B3;fillColor=#FFCCE6;" parent="1" vertex="1">
                    <mxGeometry x="1190" y="460" width="120" height="70" as="geometry"/>
                </mxCell>
                <mxCell id="lTQZ8dkTj6trxgzpwAS2-72" value="" style="curved=1;endArrow=classic;html=1;entryX=0.5;entryY=0.846;entryDx=0;entryDy=0;strokeWidth=4;opacity=50;entryPerimeter=0;strokeColor=#990000;" parent="1" target="50" edge="1">
                    <mxGeometry width="50" height="50" relative="1" as="geometry">
                        <mxPoint x="1220" y="500" as="sourcePoint"/>
                        <mxPoint x="1130" y="550" as="targetPoint"/>
                        <Array as="points">
                            <mxPoint x="1130" y="520"/>
                            <mxPoint x="1090" y="480"/>
                            <mxPoint x="1070" y="450"/>
                        </Array>
                    </mxGeometry>
                </mxCell>
                <mxCell id="lTQZ8dkTj6trxgzpwAS2-75" value="&lt;span style=&quot;color: rgb(63, 63, 63); font-size: 24px;&quot;&gt;@initialize_queue (iq, .{ .color = red})&lt;/span&gt;" style="rounded=0;whiteSpace=wrap;html=1;fillColor=#f8cecc;strokeColor=#990000;strokeWidth=3;align=center;" parent="1" vertex="1">
                    <mxGeometry x="860" y="800" width="430" height="60" as="geometry"/>
                </mxCell>
                <mxCell id="lTQZ8dkTj6trxgzpwAS2-77" value="&lt;font style=&quot;font-size: 24px;&quot;&gt;@get_data_task_id (iq)&lt;/font&gt;" style="rounded=0;whiteSpace=wrap;html=1;fillColor=#dae8fc;strokeColor=#6666FF;strokeWidth=4;" parent="1" vertex="1">
                    <mxGeometry x="517" y="800" width="310" height="60" as="geometry"/>
                </mxCell>
                <mxCell id="lTQZ8dkTj6trxgzpwAS2-78" value="" style="shape=curlyBracket;whiteSpace=wrap;html=1;rounded=1;flipH=1;labelPosition=right;verticalLabelPosition=middle;align=left;verticalAlign=middle;rotation=90;" parent="1" vertex="1">
                    <mxGeometry x="881.25" y="500" width="45" height="787.5" as="geometry"/>
                </mxCell>
                <mxCell id="lTQZ8dkTj6trxgzpwAS2-79" value="&lt;font style=&quot;font-size: 24px;&quot;&gt;@get_data_task_id (red)&lt;/font&gt;" style="rounded=0;whiteSpace=wrap;html=1;fillColor=#CCFFFF;strokeColor=#6c8ebf;strokeWidth=4;" parent="1" vertex="1">
                    <mxGeometry x="740" y="930" width="310" height="60" as="geometry"/>
                </mxCell>
                <mxCell id="lTQZ8dkTj6trxgzpwAS2-80" value="" style="curved=1;endArrow=classic;html=1;entryX=0.864;entryY=0.357;entryDx=0;entryDy=0;entryPerimeter=0;exitX=0.5;exitY=0.269;exitDx=0;exitDy=0;exitPerimeter=0;strokeWidth=4;strokeColor=#6666FF;opacity=70;" parent="1" source="50" target="lTQZ8dkTj6trxgzpwAS2-73" edge="1">
                    <mxGeometry width="50" height="50" relative="1" as="geometry">
                        <mxPoint x="770" y="490" as="sourcePoint"/>
                        <mxPoint x="870" y="600" as="targetPoint"/>
                        <Array as="points">
                            <mxPoint x="710" y="480"/>
                            <mxPoint x="620" y="430"/>
                        </Array>
                    </mxGeometry>
                </mxCell>
                <mxCell id="lTQZ8dkTj6trxgzpwAS2-82" value="" style="curved=1;endArrow=classic;html=1;entryX=0.864;entryY=0.357;entryDx=0;entryDy=0;entryPerimeter=0;strokeWidth=4;strokeColor=#99FFFF;" parent="1" source="lTQZ8dkTj6trxgzpwAS2-71" edge="1">
                    <mxGeometry width="50" height="50" relative="1" as="geometry">
                        <mxPoint x="810" y="470" as="sourcePoint"/>
                        <mxPoint x="520" y="460" as="targetPoint"/>
                        <Array as="points">
                            <mxPoint x="970" y="490"/>
                            <mxPoint x="710" y="430"/>
                        </Array>
                    </mxGeometry>
                </mxCell>
                <mxCell id="lTQZ8dkTj6trxgzpwAS2-83" value="&lt;font style=&quot;font-size: 18px;&quot;&gt;&lt;font style=&quot;&quot;&gt;Unnecessary&lt;/font&gt;?&lt;/font&gt;" style="shape=callout;whiteSpace=wrap;html=1;perimeter=calloutPerimeter;fillColor=#CCE5FF;strokeColor=#6c8ebf;opacity=50;" parent="1" vertex="1">
                    <mxGeometry x="570" y="730" width="220" height="80" as="geometry"/>
                </mxCell>
                <mxCell id="73" value="" style="curved=1;endArrow=classic;html=1;entryX=-0.006;entryY=0.396;entryDx=0;entryDy=0;entryPerimeter=0;fillColor=#d5e8d4;strokeColor=#82b366;strokeWidth=4;" parent="1" source="72" target="lTQZ8dkTj6trxgzpwAS2-73" edge="1">
                    <mxGeometry width="50" height="50" relative="1" as="geometry">
                        <mxPoint x="460" y="610" as="sourcePoint"/>
                        <mxPoint x="510" y="560" as="targetPoint"/>
                        <Array as="points">
                            <mxPoint x="400" y="730"/>
                            <mxPoint x="280" y="550"/>
                        </Array>
                    </mxGeometry>
                </mxCell>
                <mxCell id="74" value="&lt;font style=&quot;font-size: 24px;&quot;&gt;@bind_data_task(task_name, task_id)&lt;/font&gt;" style="rounded=0;whiteSpace=wrap;html=1;fillColor=#66FF66;opacity=70;strokeColor=#009900;strokeWidth=4;" parent="1" vertex="1">
                    <mxGeometry x="60" y="860" width="420" height="60" as="geometry"/>
                </mxCell>
            </root>
        </mxGraphModel>
    </diagram>
    <diagram name="backup" id="0Wp5c9FKKZxRUf-dMzcK">
        <mxGraphModel dx="952" dy="805" grid="1" gridSize="10" guides="1" tooltips="1" connect="1" arrows="1" fold="1" page="1" pageScale="1" pageWidth="1654" pageHeight="1169" background="#ffffff" math="0" shadow="0">
            <root>
                <mxCell id="Wf_ZJ3Y_NDI6wmYYrGZs-0"/>
                <mxCell id="Wf_ZJ3Y_NDI6wmYYrGZs-1" parent="Wf_ZJ3Y_NDI6wmYYrGZs-0"/>
                <mxCell id="Wf_ZJ3Y_NDI6wmYYrGZs-2" value="&lt;font style=&quot;font-size: 18px;&quot;&gt;Compute Engine (processor)&lt;/font&gt;" style="swimlane;whiteSpace=wrap;html=1;startSize=30;" vertex="1" parent="Wf_ZJ3Y_NDI6wmYYrGZs-1">
                    <mxGeometry x="50" y="310" width="550" height="400" as="geometry"/>
                </mxCell>
                <mxCell id="Wf_ZJ3Y_NDI6wmYYrGZs-3" value="&lt;font style=&quot;font-size: 14px;&quot;&gt;ALU&lt;/font&gt;" style="shape=trapezoid;perimeter=trapezoidPerimeter;whiteSpace=wrap;html=1;fixedSize=1;" vertex="1" parent="Wf_ZJ3Y_NDI6wmYYrGZs-2">
                    <mxGeometry x="30" y="70" width="120" height="60" as="geometry"/>
                </mxCell>
                <mxCell id="Wf_ZJ3Y_NDI6wmYYrGZs-4" style="edgeStyle=none;html=1;entryX=0.5;entryY=0;entryDx=0;entryDy=0;" edge="1" parent="Wf_ZJ3Y_NDI6wmYYrGZs-2" source="Wf_ZJ3Y_NDI6wmYYrGZs-5" target="Wf_ZJ3Y_NDI6wmYYrGZs-6">
                    <mxGeometry relative="1" as="geometry">
                        <Array as="points">
                            <mxPoint x="155" y="270"/>
                        </Array>
                    </mxGeometry>
                </mxCell>
                <mxCell id="Wf_ZJ3Y_NDI6wmYYrGZs-5" value="&lt;font style=&quot;font-size: 14px;&quot;&gt;&lt;font style=&quot;&quot;&gt;Select&amp;nbsp;&lt;/font&gt;&lt;span style=&quot;background-color: transparent;&quot;&gt;Logic&lt;/span&gt;&lt;/font&gt;&lt;div&gt;&lt;font size=&quot;3&quot;&gt;(task picker)&lt;/font&gt;&lt;/div&gt;" style="shape=process;whiteSpace=wrap;html=1;backgroundOutline=1;" vertex="1" parent="Wf_ZJ3Y_NDI6wmYYrGZs-2">
                    <mxGeometry x="90" y="150" width="130" height="90" as="geometry"/>
                </mxCell>
                <mxCell id="Wf_ZJ3Y_NDI6wmYYrGZs-6" value="&lt;font style=&quot;font-size: 18px;&quot;&gt;PC&lt;/font&gt;" style="rhombus;whiteSpace=wrap;html=1;" vertex="1" parent="Wf_ZJ3Y_NDI6wmYYrGZs-2">
                    <mxGeometry x="115" y="310" width="80" height="80" as="geometry"/>
                </mxCell>
                <mxCell id="Wf_ZJ3Y_NDI6wmYYrGZs-7" value="Decode" style="shape=process;whiteSpace=wrap;html=1;backgroundOutline=1;" vertex="1" parent="Wf_ZJ3Y_NDI6wmYYrGZs-2">
                    <mxGeometry x="20" y="260" width="90" height="60" as="geometry"/>
                </mxCell>
                <mxCell id="Wf_ZJ3Y_NDI6wmYYrGZs-8" style="edgeStyle=none;html=1;exitX=0;exitY=0.5;exitDx=0;exitDy=0;entryX=1;entryY=0.5;entryDx=0;entryDy=0;" edge="1" parent="Wf_ZJ3Y_NDI6wmYYrGZs-2" source="Wf_ZJ3Y_NDI6wmYYrGZs-14" target="Wf_ZJ3Y_NDI6wmYYrGZs-5">
                    <mxGeometry relative="1" as="geometry"/>
                </mxCell>
                <mxCell id="Wf_ZJ3Y_NDI6wmYYrGZs-9" style="edgeStyle=none;html=1;exitX=0;exitY=0.5;exitDx=0;exitDy=0;entryX=1;entryY=0.5;entryDx=0;entryDy=0;" edge="1" parent="Wf_ZJ3Y_NDI6wmYYrGZs-2" source="Wf_ZJ3Y_NDI6wmYYrGZs-16" target="Wf_ZJ3Y_NDI6wmYYrGZs-5">
                    <mxGeometry relative="1" as="geometry">
                        <mxPoint x="160" y="210" as="targetPoint"/>
                    </mxGeometry>
                </mxCell>
                <mxCell id="Wf_ZJ3Y_NDI6wmYYrGZs-10" style="edgeStyle=none;html=1;exitX=0;exitY=0.5;exitDx=0;exitDy=0;entryX=1;entryY=0.5;entryDx=0;entryDy=0;" edge="1" parent="Wf_ZJ3Y_NDI6wmYYrGZs-2" source="Wf_ZJ3Y_NDI6wmYYrGZs-17" target="Wf_ZJ3Y_NDI6wmYYrGZs-5">
                    <mxGeometry relative="1" as="geometry">
                        <mxPoint x="160" y="260" as="targetPoint"/>
                    </mxGeometry>
                </mxCell>
                <mxCell id="Wf_ZJ3Y_NDI6wmYYrGZs-11" style="edgeStyle=none;html=1;exitX=0;exitY=0.5;exitDx=0;exitDy=0;entryX=1;entryY=0.5;entryDx=0;entryDy=0;" edge="1" parent="Wf_ZJ3Y_NDI6wmYYrGZs-2" source="Wf_ZJ3Y_NDI6wmYYrGZs-18" target="Wf_ZJ3Y_NDI6wmYYrGZs-5">
                    <mxGeometry relative="1" as="geometry">
                        <mxPoint x="150" y="200" as="targetPoint"/>
                    </mxGeometry>
                </mxCell>
                <mxCell id="Wf_ZJ3Y_NDI6wmYYrGZs-12" style="edgeStyle=none;html=1;exitX=0.25;exitY=0;exitDx=0;exitDy=0;entryX=0.5;entryY=0.833;entryDx=0;entryDy=0;entryPerimeter=0;" edge="1" parent="Wf_ZJ3Y_NDI6wmYYrGZs-2" source="Wf_ZJ3Y_NDI6wmYYrGZs-7" target="Wf_ZJ3Y_NDI6wmYYrGZs-3">
                    <mxGeometry relative="1" as="geometry">
                        <Array as="points">
                            <mxPoint x="43" y="150"/>
                        </Array>
                    </mxGeometry>
                </mxCell>
                <mxCell id="Wf_ZJ3Y_NDI6wmYYrGZs-13" value="" style="group" vertex="1" connectable="0" parent="Wf_ZJ3Y_NDI6wmYYrGZs-2">
                    <mxGeometry x="250" y="60" width="250" height="310" as="geometry"/>
                </mxCell>
                <mxCell id="Wf_ZJ3Y_NDI6wmYYrGZs-14" value="" style="rounded=1;whiteSpace=wrap;html=1;" vertex="1" parent="Wf_ZJ3Y_NDI6wmYYrGZs-13">
                    <mxGeometry y="30" width="250.00000000000003" height="40" as="geometry"/>
                </mxCell>
                <mxCell id="Wf_ZJ3Y_NDI6wmYYrGZs-15" value="table of tasks (specialized register)" style="swimlane;whiteSpace=wrap;html=1;" vertex="1" parent="Wf_ZJ3Y_NDI6wmYYrGZs-13">
                    <mxGeometry width="250.00000000000003" height="310" as="geometry"/>
                </mxCell>
                <mxCell id="Wf_ZJ3Y_NDI6wmYYrGZs-16" value="" style="rounded=1;whiteSpace=wrap;html=1;" vertex="1" parent="Wf_ZJ3Y_NDI6wmYYrGZs-15">
                    <mxGeometry y="130" width="250.00000000000003" height="40" as="geometry"/>
                </mxCell>
                <mxCell id="Wf_ZJ3Y_NDI6wmYYrGZs-17" value="" style="rounded=1;whiteSpace=wrap;html=1;" vertex="1" parent="Wf_ZJ3Y_NDI6wmYYrGZs-15">
                    <mxGeometry y="270" width="250.00000000000003" height="40" as="geometry"/>
                </mxCell>
                <mxCell id="Wf_ZJ3Y_NDI6wmYYrGZs-18" value="" style="rounded=1;whiteSpace=wrap;html=1;" vertex="1" parent="Wf_ZJ3Y_NDI6wmYYrGZs-15">
                    <mxGeometry y="70" width="250.00000000000003" height="40" as="geometry"/>
                </mxCell>
                <mxCell id="Wf_ZJ3Y_NDI6wmYYrGZs-19" value="" style="rounded=1;whiteSpace=wrap;html=1;" vertex="1" parent="Wf_ZJ3Y_NDI6wmYYrGZs-15">
                    <mxGeometry y="170" width="250.00000000000003" height="40" as="geometry"/>
                </mxCell>
                <mxCell id="Wf_ZJ3Y_NDI6wmYYrGZs-20" value="&lt;font style=&quot;font-size: 14px;&quot;&gt;Mem Addr (code)&lt;/font&gt;" style="shape=hexagon;perimeter=hexagonPerimeter2;whiteSpace=wrap;html=1;fixedSize=1;" vertex="1" parent="Wf_ZJ3Y_NDI6wmYYrGZs-13">
                    <mxGeometry x="30" y="30" width="140" height="40" as="geometry"/>
                </mxCell>
                <mxCell id="Wf_ZJ3Y_NDI6wmYYrGZs-21" value="&lt;font style=&quot;font-size: 14px;&quot;&gt;flag bit&lt;/font&gt;" style="shape=hexagon;perimeter=hexagonPerimeter2;whiteSpace=wrap;html=1;fixedSize=1;" vertex="1" parent="Wf_ZJ3Y_NDI6wmYYrGZs-13">
                    <mxGeometry x="170" y="30" width="68.64" height="40" as="geometry"/>
                </mxCell>
                <mxCell id="Wf_ZJ3Y_NDI6wmYYrGZs-22" style="edgeStyle=none;html=1;exitX=0;exitY=0.5;exitDx=0;exitDy=0;entryX=1;entryY=0.5;entryDx=0;entryDy=0;" edge="1" parent="Wf_ZJ3Y_NDI6wmYYrGZs-2" source="Wf_ZJ3Y_NDI6wmYYrGZs-19" target="Wf_ZJ3Y_NDI6wmYYrGZs-5">
                    <mxGeometry relative="1" as="geometry"/>
                </mxCell>
                <mxCell id="Wf_ZJ3Y_NDI6wmYYrGZs-23" value="&lt;font style=&quot;font-size: 18px;&quot;&gt;Router&lt;/font&gt;" style="swimlane;whiteSpace=wrap;html=1;startSize=30;" vertex="1" parent="Wf_ZJ3Y_NDI6wmYYrGZs-1">
                    <mxGeometry x="680" y="310" width="460" height="400" as="geometry"/>
                </mxCell>
                <mxCell id="Wf_ZJ3Y_NDI6wmYYrGZs-24" value="&lt;font style=&quot;font-size: 18px;&quot;&gt;Input Queue (Hardware Buffer)&lt;/font&gt;" style="swimlane;whiteSpace=wrap;html=1;startSize=40;" vertex="1" parent="Wf_ZJ3Y_NDI6wmYYrGZs-23">
                    <mxGeometry x="40" y="40" width="290" height="210" as="geometry"/>
                </mxCell>
                <mxCell id="Wf_ZJ3Y_NDI6wmYYrGZs-25" value="" style="shape=cylinder3;whiteSpace=wrap;html=1;boundedLbl=1;backgroundOutline=1;size=15;rotation=-90;" vertex="1" parent="Wf_ZJ3Y_NDI6wmYYrGZs-24">
                    <mxGeometry x="120" y="-60" width="40" height="260" as="geometry"/>
                </mxCell>
                <mxCell id="Wf_ZJ3Y_NDI6wmYYrGZs-26" value="" style="shape=cylinder3;whiteSpace=wrap;html=1;boundedLbl=1;backgroundOutline=1;size=15;rotation=-90;" vertex="1" parent="Wf_ZJ3Y_NDI6wmYYrGZs-24">
                    <mxGeometry x="120" y="40" width="40" height="260" as="geometry"/>
                </mxCell>
                <mxCell id="Wf_ZJ3Y_NDI6wmYYrGZs-27" value="&lt;font style=&quot;font-size: 14px;&quot;&gt;route associated with task ID&lt;/font&gt;" style="text;html=1;align=center;verticalAlign=middle;whiteSpace=wrap;rounded=0;" vertex="1" parent="Wf_ZJ3Y_NDI6wmYYrGZs-24">
                    <mxGeometry x="50" y="55" width="200" height="30" as="geometry"/>
                </mxCell>
                <mxCell id="Wf_ZJ3Y_NDI6wmYYrGZs-28" value="&lt;font style=&quot;font-size: 14px;&quot;&gt;route associated with task ID&lt;/font&gt;" style="text;html=1;align=center;verticalAlign=middle;whiteSpace=wrap;rounded=0;" vertex="1" parent="Wf_ZJ3Y_NDI6wmYYrGZs-24">
                    <mxGeometry x="45" y="155" width="200" height="30" as="geometry"/>
                </mxCell>
                <mxCell id="Wf_ZJ3Y_NDI6wmYYrGZs-29" value="" style="shape=cylinder3;whiteSpace=wrap;html=1;boundedLbl=1;backgroundOutline=1;size=15;rotation=-90;" vertex="1" parent="Wf_ZJ3Y_NDI6wmYYrGZs-24">
                    <mxGeometry x="120" y="-20" width="40" height="260" as="geometry"/>
                </mxCell>
                <mxCell id="Wf_ZJ3Y_NDI6wmYYrGZs-30" value="&lt;font style=&quot;font-size: 18px;&quot;&gt;Mechanism to send&lt;/font&gt;" style="rounded=0;whiteSpace=wrap;html=1;" vertex="1" parent="Wf_ZJ3Y_NDI6wmYYrGZs-23">
                    <mxGeometry x="40" y="270" width="290" height="60" as="geometry"/>
                </mxCell>
                <mxCell id="Wf_ZJ3Y_NDI6wmYYrGZs-31" value="" style="group" vertex="1" connectable="0" parent="Wf_ZJ3Y_NDI6wmYYrGZs-23">
                    <mxGeometry x="370" y="40" width="130" height="350" as="geometry"/>
                </mxCell>
                <mxCell id="Wf_ZJ3Y_NDI6wmYYrGZs-32" style="edgeStyle=none;html=1;exitX=0;exitY=0.75;exitDx=0;exitDy=0;exitPerimeter=0;" edge="1" parent="Wf_ZJ3Y_NDI6wmYYrGZs-31" source="Wf_ZJ3Y_NDI6wmYYrGZs-33">
                    <mxGeometry relative="1" as="geometry">
                        <mxPoint x="130" y="20" as="targetPoint"/>
                    </mxGeometry>
                </mxCell>
                <mxCell id="Wf_ZJ3Y_NDI6wmYYrGZs-33" value="&lt;font style=&quot;font-size: 14px;&quot;&gt;North Port&lt;/font&gt;" style="shape=or;whiteSpace=wrap;html=1;direction=west;" vertex="1" parent="Wf_ZJ3Y_NDI6wmYYrGZs-31">
                    <mxGeometry width="90" height="80" as="geometry"/>
                </mxCell>
                <mxCell id="Wf_ZJ3Y_NDI6wmYYrGZs-34" style="edgeStyle=none;html=1;exitX=0;exitY=0.75;exitDx=0;exitDy=0;exitPerimeter=0;" edge="1" parent="Wf_ZJ3Y_NDI6wmYYrGZs-31" source="Wf_ZJ3Y_NDI6wmYYrGZs-35">
                    <mxGeometry relative="1" as="geometry">
                        <mxPoint x="130" y="110.39999999999998" as="targetPoint"/>
                    </mxGeometry>
                </mxCell>
                <mxCell id="Wf_ZJ3Y_NDI6wmYYrGZs-35" value="&lt;font style=&quot;font-size: 14px;&quot;&gt;South Port&lt;/font&gt;" style="shape=or;whiteSpace=wrap;html=1;direction=west;" vertex="1" parent="Wf_ZJ3Y_NDI6wmYYrGZs-31">
                    <mxGeometry y="90" width="90" height="80" as="geometry"/>
                </mxCell>
                <mxCell id="Wf_ZJ3Y_NDI6wmYYrGZs-36" style="edgeStyle=none;html=1;exitX=0;exitY=0.75;exitDx=0;exitDy=0;exitPerimeter=0;" edge="1" parent="Wf_ZJ3Y_NDI6wmYYrGZs-31" source="Wf_ZJ3Y_NDI6wmYYrGZs-37">
                    <mxGeometry relative="1" as="geometry">
                        <mxPoint x="130" y="200" as="targetPoint"/>
                    </mxGeometry>
                </mxCell>
                <mxCell id="Wf_ZJ3Y_NDI6wmYYrGZs-37" value="&lt;font style=&quot;font-size: 14px;&quot;&gt;East Port&lt;/font&gt;" style="shape=or;whiteSpace=wrap;html=1;direction=west;" vertex="1" parent="Wf_ZJ3Y_NDI6wmYYrGZs-31">
                    <mxGeometry y="180" width="90" height="80" as="geometry"/>
                </mxCell>
                <mxCell id="Wf_ZJ3Y_NDI6wmYYrGZs-38" style="edgeStyle=none;html=1;exitX=0;exitY=0.75;exitDx=0;exitDy=0;exitPerimeter=0;" edge="1" parent="Wf_ZJ3Y_NDI6wmYYrGZs-31" source="Wf_ZJ3Y_NDI6wmYYrGZs-39">
                    <mxGeometry relative="1" as="geometry">
                        <mxPoint x="130" y="290.090909090909" as="targetPoint"/>
                    </mxGeometry>
                </mxCell>
                <mxCell id="Wf_ZJ3Y_NDI6wmYYrGZs-39" value="&lt;font style=&quot;font-size: 14px;&quot;&gt;West Port&lt;/font&gt;" style="shape=or;whiteSpace=wrap;html=1;direction=west;" vertex="1" parent="Wf_ZJ3Y_NDI6wmYYrGZs-31">
                    <mxGeometry y="270" width="90" height="80" as="geometry"/>
                </mxCell>
                <mxCell id="Wf_ZJ3Y_NDI6wmYYrGZs-40" style="edgeStyle=none;html=1;entryX=1;entryY=0.5;entryDx=0;entryDy=0;" edge="1" parent="Wf_ZJ3Y_NDI6wmYYrGZs-23" source="Wf_ZJ3Y_NDI6wmYYrGZs-33" target="Wf_ZJ3Y_NDI6wmYYrGZs-24">
                    <mxGeometry relative="1" as="geometry"/>
                </mxCell>
                <mxCell id="Wf_ZJ3Y_NDI6wmYYrGZs-41" style="edgeStyle=none;html=1;entryX=1;entryY=0.5;entryDx=0;entryDy=0;" edge="1" parent="Wf_ZJ3Y_NDI6wmYYrGZs-23" source="Wf_ZJ3Y_NDI6wmYYrGZs-35" target="Wf_ZJ3Y_NDI6wmYYrGZs-24">
                    <mxGeometry relative="1" as="geometry">
                        <mxPoint x="339.9999999999998" y="160" as="targetPoint"/>
                    </mxGeometry>
                </mxCell>
                <mxCell id="Wf_ZJ3Y_NDI6wmYYrGZs-42" style="edgeStyle=none;html=1;entryX=1;entryY=0.5;entryDx=0;entryDy=0;" edge="1" parent="Wf_ZJ3Y_NDI6wmYYrGZs-23" source="Wf_ZJ3Y_NDI6wmYYrGZs-37" target="Wf_ZJ3Y_NDI6wmYYrGZs-24">
                    <mxGeometry relative="1" as="geometry"/>
                </mxCell>
                <mxCell id="Wf_ZJ3Y_NDI6wmYYrGZs-43" style="edgeStyle=none;html=1;entryX=1;entryY=0.5;entryDx=0;entryDy=0;" edge="1" parent="Wf_ZJ3Y_NDI6wmYYrGZs-23" source="Wf_ZJ3Y_NDI6wmYYrGZs-39" target="Wf_ZJ3Y_NDI6wmYYrGZs-24">
                    <mxGeometry relative="1" as="geometry"/>
                </mxCell>
                <mxCell id="Wf_ZJ3Y_NDI6wmYYrGZs-44" style="edgeStyle=none;html=1;entryX=1;entryY=0.5;entryDx=0;entryDy=0;" edge="1" parent="Wf_ZJ3Y_NDI6wmYYrGZs-1" source="Wf_ZJ3Y_NDI6wmYYrGZs-49" target="Wf_ZJ3Y_NDI6wmYYrGZs-14">
                    <mxGeometry relative="1" as="geometry"/>
                </mxCell>
                <mxCell id="Wf_ZJ3Y_NDI6wmYYrGZs-45" style="edgeStyle=none;html=1;entryX=1;entryY=0.5;entryDx=0;entryDy=0;" edge="1" parent="Wf_ZJ3Y_NDI6wmYYrGZs-1" source="Wf_ZJ3Y_NDI6wmYYrGZs-49" target="Wf_ZJ3Y_NDI6wmYYrGZs-18">
                    <mxGeometry relative="1" as="geometry"/>
                </mxCell>
                <mxCell id="Wf_ZJ3Y_NDI6wmYYrGZs-46" style="edgeStyle=none;html=1;entryX=1;entryY=0.5;entryDx=0;entryDy=0;" edge="1" parent="Wf_ZJ3Y_NDI6wmYYrGZs-1" source="Wf_ZJ3Y_NDI6wmYYrGZs-49" target="Wf_ZJ3Y_NDI6wmYYrGZs-16">
                    <mxGeometry relative="1" as="geometry"/>
                </mxCell>
                <mxCell id="Wf_ZJ3Y_NDI6wmYYrGZs-47" style="edgeStyle=none;html=1;entryX=1;entryY=0.5;entryDx=0;entryDy=0;" edge="1" parent="Wf_ZJ3Y_NDI6wmYYrGZs-1" source="Wf_ZJ3Y_NDI6wmYYrGZs-49" target="Wf_ZJ3Y_NDI6wmYYrGZs-17">
                    <mxGeometry relative="1" as="geometry"/>
                </mxCell>
                <mxCell id="Wf_ZJ3Y_NDI6wmYYrGZs-48" style="edgeStyle=none;html=1;entryX=1;entryY=0.5;entryDx=0;entryDy=0;" edge="1" parent="Wf_ZJ3Y_NDI6wmYYrGZs-1" source="Wf_ZJ3Y_NDI6wmYYrGZs-49" target="Wf_ZJ3Y_NDI6wmYYrGZs-19">
                    <mxGeometry relative="1" as="geometry"/>
                </mxCell>
                <mxCell id="Wf_ZJ3Y_NDI6wmYYrGZs-49" value="" style="shape=waypoint;sketch=0;fillStyle=solid;size=6;pointerEvents=1;points=[];fillColor=none;resizable=0;rotatable=0;perimeter=centerPerimeter;snapToPoint=1;" vertex="1" parent="Wf_ZJ3Y_NDI6wmYYrGZs-1">
                    <mxGeometry x="580" y="530" width="20" height="20" as="geometry"/>
                </mxCell>
                <mxCell id="Wf_ZJ3Y_NDI6wmYYrGZs-50" style="edgeStyle=none;html=1;exitX=0.5;exitY=0;exitDx=0;exitDy=0;entryX=0.617;entryY=0.988;entryDx=0;entryDy=0;entryPerimeter=0;" edge="1" parent="Wf_ZJ3Y_NDI6wmYYrGZs-1" source="Wf_ZJ3Y_NDI6wmYYrGZs-3" target="Wf_ZJ3Y_NDI6wmYYrGZs-49">
                    <mxGeometry relative="1" as="geometry">
                        <Array as="points">
                            <mxPoint x="140" y="360"/>
                            <mxPoint x="590" y="360"/>
                        </Array>
                    </mxGeometry>
                </mxCell>
                <mxCell id="Wf_ZJ3Y_NDI6wmYYrGZs-51" value="&lt;span style=&quot;font-size: 18px;&quot;&gt;local PE memory&lt;/span&gt;" style="swimlane;whiteSpace=wrap;html=1;startSize=40;" vertex="1" parent="Wf_ZJ3Y_NDI6wmYYrGZs-1">
                    <mxGeometry x="50" y="720" width="490" height="120" as="geometry"/>
                </mxCell>
                <mxCell id="Wf_ZJ3Y_NDI6wmYYrGZs-52" value="&lt;font size=&quot;3&quot;&gt;Code&lt;/font&gt;" style="shape=cube;whiteSpace=wrap;html=1;boundedLbl=1;backgroundOutline=1;darkOpacity=0.05;darkOpacity2=0.1;" vertex="1" parent="Wf_ZJ3Y_NDI6wmYYrGZs-51">
                    <mxGeometry x="50" y="40" width="180" height="80" as="geometry"/>
                </mxCell>
                <mxCell id="Wf_ZJ3Y_NDI6wmYYrGZs-53" value="&lt;font style=&quot;font-size: 18px;&quot;&gt;Data&lt;/font&gt;" style="shape=cube;whiteSpace=wrap;html=1;boundedLbl=1;backgroundOutline=1;darkOpacity=0.05;darkOpacity2=0.1;" vertex="1" parent="Wf_ZJ3Y_NDI6wmYYrGZs-51">
                    <mxGeometry x="260" y="40" width="180" height="80" as="geometry"/>
                </mxCell>
                <mxCell id="Wf_ZJ3Y_NDI6wmYYrGZs-54" style="edgeStyle=none;html=1;entryX=0.583;entryY=0.125;entryDx=0;entryDy=0;entryPerimeter=0;" edge="1" parent="Wf_ZJ3Y_NDI6wmYYrGZs-1" source="Wf_ZJ3Y_NDI6wmYYrGZs-6" target="Wf_ZJ3Y_NDI6wmYYrGZs-52">
                    <mxGeometry relative="1" as="geometry"/>
                </mxCell>
                <mxCell id="Wf_ZJ3Y_NDI6wmYYrGZs-55" style="edgeStyle=none;html=1;entryX=0.25;entryY=1;entryDx=0;entryDy=0;" edge="1" parent="Wf_ZJ3Y_NDI6wmYYrGZs-1" source="Wf_ZJ3Y_NDI6wmYYrGZs-52" target="Wf_ZJ3Y_NDI6wmYYrGZs-7">
                    <mxGeometry relative="1" as="geometry">
                        <Array as="points">
                            <mxPoint x="93" y="690"/>
                        </Array>
                    </mxGeometry>
                </mxCell>
                <mxCell id="Wf_ZJ3Y_NDI6wmYYrGZs-56" style="edgeStyle=none;html=1;" edge="1" parent="Wf_ZJ3Y_NDI6wmYYrGZs-1" source="Wf_ZJ3Y_NDI6wmYYrGZs-25" target="Wf_ZJ3Y_NDI6wmYYrGZs-14">
                    <mxGeometry relative="1" as="geometry">
                        <mxPoint x="630" y="380" as="targetPoint"/>
                    </mxGeometry>
                </mxCell>
                <mxCell id="Wf_ZJ3Y_NDI6wmYYrGZs-57" style="edgeStyle=none;html=1;entryX=1;entryY=0.5;entryDx=0;entryDy=0;" edge="1" parent="Wf_ZJ3Y_NDI6wmYYrGZs-1" source="Wf_ZJ3Y_NDI6wmYYrGZs-26" target="Wf_ZJ3Y_NDI6wmYYrGZs-16">
                    <mxGeometry relative="1" as="geometry"/>
                </mxCell>
                <mxCell id="Wf_ZJ3Y_NDI6wmYYrGZs-58" style="edgeStyle=none;html=1;entryX=1;entryY=0.5;entryDx=0;entryDy=0;" edge="1" parent="Wf_ZJ3Y_NDI6wmYYrGZs-1" source="Wf_ZJ3Y_NDI6wmYYrGZs-29" target="Wf_ZJ3Y_NDI6wmYYrGZs-18">
                    <mxGeometry relative="1" as="geometry"/>
                </mxCell>
                <mxCell id="Wf_ZJ3Y_NDI6wmYYrGZs-59" value="" style="endArrow=classic;html=1;entryX=0;entryY=0.25;entryDx=0;entryDy=0;entryPerimeter=0;" edge="1" parent="Wf_ZJ3Y_NDI6wmYYrGZs-1" target="Wf_ZJ3Y_NDI6wmYYrGZs-33">
                    <mxGeometry width="50" height="50" relative="1" as="geometry">
                        <mxPoint x="1180" y="410" as="sourcePoint"/>
                        <mxPoint x="1200" y="430" as="targetPoint"/>
                    </mxGeometry>
                </mxCell>
                <mxCell id="Wf_ZJ3Y_NDI6wmYYrGZs-60" value="" style="endArrow=classic;html=1;entryX=0;entryY=0.25;entryDx=0;entryDy=0;entryPerimeter=0;" edge="1" parent="Wf_ZJ3Y_NDI6wmYYrGZs-1" target="Wf_ZJ3Y_NDI6wmYYrGZs-35">
                    <mxGeometry width="50" height="50" relative="1" as="geometry">
                        <mxPoint x="1180" y="500" as="sourcePoint"/>
                        <mxPoint x="1200" y="500" as="targetPoint"/>
                    </mxGeometry>
                </mxCell>
                <mxCell id="Wf_ZJ3Y_NDI6wmYYrGZs-61" value="" style="endArrow=classic;html=1;entryX=0;entryY=0.25;entryDx=0;entryDy=0;entryPerimeter=0;" edge="1" parent="Wf_ZJ3Y_NDI6wmYYrGZs-1" target="Wf_ZJ3Y_NDI6wmYYrGZs-37">
                    <mxGeometry width="50" height="50" relative="1" as="geometry">
                        <mxPoint x="1180" y="590" as="sourcePoint"/>
                        <mxPoint x="1180" y="520" as="targetPoint"/>
                    </mxGeometry>
                </mxCell>
                <mxCell id="Wf_ZJ3Y_NDI6wmYYrGZs-62" value="" style="endArrow=classic;html=1;entryX=0;entryY=0.25;entryDx=0;entryDy=0;entryPerimeter=0;" edge="1" parent="Wf_ZJ3Y_NDI6wmYYrGZs-1" target="Wf_ZJ3Y_NDI6wmYYrGZs-39">
                    <mxGeometry width="50" height="50" relative="1" as="geometry">
                        <mxPoint x="1180" y="680" as="sourcePoint"/>
                        <mxPoint x="1180" y="520" as="targetPoint"/>
                    </mxGeometry>
                </mxCell>
            </root>
        </mxGraphModel>
    </diagram>
</mxfile>